name Walk4.mot
datacolumns 19
datarows 25
range 2.04700000 2.07100000
endheader

                time	   L_ground_force_vx	   L_ground_force_vy	   L_ground_force_vz	   L_ground_force_px	   L_ground_force_py	   L_ground_force_pz	   R_ground_force_vx	   R_ground_force_vy	   R_ground_force_vz	   R_ground_force_px	   R_ground_force_py	   R_ground_force_pz	   L_ground_torque_x	   L_ground_torque_y	   L_ground_torque_z	   R_ground_torque_x	   R_ground_torque_y	   R_ground_torque_z	
          2.04700000	         -0.00000001	         -0.00000002	          0.00000000	          0.00000000	          0.00000000	         -0.00000000	         -1.40219496	         -5.81819041	         -0.23859198	          0.01381621	          0.00000000	          0.00184421	          0.00000000	         -0.00000000	          0.00000000	          0.00000000	          0.29486486	          0.00000000	
          2.04800000	         -0.00000001	         -0.00000002	          0.00000000	          0.00000000	          0.00000000	         -0.00000000	         -1.40284774	         -5.82426379	         -0.24579050	          0.00970975	          0.00000000	          0.00137601	          0.00000000	         -0.00000000	          0.00000000	          0.00000000	          0.29230066	          0.00000000	
          2.04900000	         -0.00000001	         -0.00000002	          0.00000000	          0.00000000	          0.00000000	         -0.00000000	         -1.39814397	         -5.80781225	         -0.25144818	          0.00591575	          0.00000000	          0.00094242	          0.00000000	         -0.00000000	          0.00000000	          0.00000000	          0.28884995	          0.00000000	
          2.05000000	         -0.00000001	         -0.00000002	          0.00000000	          0.00000000	          0.00000000	         -0.00000000	         -1.38855688	         -5.77081311	         -0.25567466	          0.00242198	          0.00000000	          0.00054214	          0.00000000	         -0.00000000	          0.00000000	          0.00000000	          0.28460114	          0.00000000	
          2.05100000	         -0.00000001	         -0.00000002	          0.00000000	          0.00000000	          0.00000000	         -0.00000000	         -1.37453789	         -5.71515323	         -0.25857565	         -0.00078389	          0.00000000	          0.00017384	          0.00000000	         -0.00000000	          0.00000000	          0.00000000	          0.27963814	          0.00000000	
          2.05200000	         -0.00000001	         -0.00000001	          0.00000000	          0.00000000	          0.00000000	         -0.00000000	         -1.35651680	         -5.64262955	         -0.26025289	         -0.00371422	          0.00000000	         -0.00016380	          0.00000000	         -0.00000000	          0.00000000	          0.00000000	          0.27404042	          0.00000000	
          2.05300000	         -0.00000001	         -0.00000001	          0.00000000	          0.00000000	          0.00000000	         -0.00000000	         -1.33490197	         -5.55494996	         -0.26080408	         -0.00638137	          0.00000000	         -0.00047212	          0.00000000	         -0.00000000	          0.00000000	          0.00000000	          0.26788311	          0.00000000	
          2.05400000	         -0.00000001	         -0.00000001	          0.00000000	          0.00000000	          0.00000000	         -0.00000000	         -1.31008064	         -5.45373438	         -0.26032290	         -0.00879763	          0.00000000	         -0.00075244	          0.00000000	         -0.00000000	          0.00000000	          0.00000000	          0.26123706	          0.00000000	
          2.05500000	         -0.00000000	         -0.00000001	          0.00000000	          0.00000000	          0.00000000	         -0.00000000	         -1.28241923	         -5.34051618	         -0.25889893	         -0.01097521	          0.00000000	         -0.00100608	          0.00000000	         -0.00000000	          0.00000000	          0.00000000	          0.25416892	          0.00000000	
          2.05600000	         -0.00000000	         -0.00000001	          0.00000000	          0.00000000	          0.00000000	         -0.00000000	         -1.25226375	         -5.21674370	         -0.25661771	         -0.01292616	          0.00000000	         -0.00123435	          0.00000000	         -0.00000000	          0.00000000	          0.00000000	          0.24674130	          0.00000000	
          2.05700000	         -0.00000000	         -0.00000001	          0.00000000	          0.00000000	          0.00000000	         -0.00000000	         -1.21994020	         -5.08378200	         -0.25356075	         -0.01466240	          0.00000000	         -0.00143855	          0.00000000	         -0.00000000	          0.00000000	          0.00000000	          0.23901283	          0.00000000	
          2.05800000	         -0.00000000	         -0.00000001	          0.00000000	          0.00000000	          0.00000000	         -0.00000000	         -1.18575506	         -4.94291484	         -0.24980556	         -0.01619560	          0.00000000	         -0.00161995	          0.00000000	         -0.00000000	          0.00000000	          0.00000000	          0.23103830	          0.00000000	
          2.05900000	         -0.00000000	         -0.00000001	          0.00000000	          0.00000000	          0.00000000	         -0.00000000	         -1.14999579	         -4.79534666	         -0.24542569	         -0.01753725	          0.00000000	         -0.00177981	          0.00000000	         -0.00000000	          0.00000000	          0.00000000	          0.22286875	          0.00000000	
          2.06000000	         -0.00000000	         -0.00000001	          0.00000000	          0.00000000	          0.00000000	         -0.00000000	         -1.11293136	         -4.64220484	         -0.24049081	         -0.01869856	          0.00000000	         -0.00191935	          0.00000000	         -0.00000000	          0.00000000	          0.00000000	          0.21455164	          0.00000000	
          2.06100000	         -0.00000000	         -0.00000001	          0.00000000	          0.00000000	          0.00000000	         -0.00000000	         -1.07481279	         -4.48454197	         -0.23506676	         -0.01969046	          0.00000000	         -0.00203977	          0.00000000	         -0.00000000	          0.00000000	          0.00000000	          0.20613095	          0.00000000	
          2.06200000	         -0.00000000	         -0.00000001	          0.00000000	          0.00000000	          0.00000000	         -0.00000000	         -1.03587375	         -4.32333821	         -0.22921562	         -0.02052363	          0.00000000	         -0.00214225	          0.00000000	         -0.00000000	          0.00000000	          0.00000000	          0.19764729	          0.00000000	
          2.06300000	         -0.00000000	         -0.00000001	          0.00000000	          0.00000000	          0.00000000	         -0.00000000	         -0.99633115	         -4.15950377	         -0.22299582	         -0.02120840	          0.00000000	         -0.00222792	          0.00000000	         -0.00000000	          0.00000000	          0.00000000	          0.18913809	          0.00000000	
          2.06400000	         -0.00000000	         -0.00000000	          0.00000000	          0.00000000	          0.00000000	         -0.00000000	         -0.95638572	         -3.99388143	         -0.21646220	         -0.02175481	          0.00000000	         -0.00229788	          0.00000000	         -0.00000000	          0.00000000	          0.00000000	          0.18063767	          0.00000000	
          2.06500000	         -0.00000000	         -0.00000000	          0.00000000	          0.00000000	          0.00000000	         -0.00000000	         -0.91622266	         -3.82724904	         -0.20966613	         -0.02217256	          0.00000000	         -0.00235322	          0.00000000	         -0.00000000	          0.00000000	          0.00000000	          0.17217740	          0.00000000	
          2.06600000	         -0.00000000	         -0.00000000	          0.00000000	          0.00000000	          0.00000000	         -0.00000000	         -0.87601223	         -3.66032214	         -0.20265562	         -0.02247100	          0.00000000	         -0.00239495	          0.00000000	         -0.00000000	          0.00000000	          0.00000000	          0.16378585	          0.00000000	
          2.06700000	         -0.00000000	         -0.00000000	          0.00000000	          0.00000000	          0.00000000	         -0.00000000	         -0.83591042	         -3.49375656	         -0.19547538	         -0.02265916	          0.00000000	         -0.00242409	          0.00000000	         -0.00000000	          0.00000000	          0.00000000	          0.15548886	          0.00000000	
          2.06800000	         -0.00000000	         -0.00000000	          0.00000000	          0.00000000	          0.00000000	         -0.00000000	         -0.79605952	         -3.32815098	         -0.18816697	         -0.02274569	          0.00000000	         -0.00244159	          0.00000000	         -0.00000000	          0.00000000	          0.00000000	          0.14730977	          0.00000000	
          2.06900000	         -0.00000000	         -0.00000000	          0.00000000	          0.00000000	          0.00000000	         -0.00000000	         -0.75658878	         -3.16404957	         -0.18076892	         -0.02273891	          0.00000000	         -0.00244838	          0.00000000	         -0.00000000	          0.00000000	          0.00000000	          0.13926945	          0.00000000	
          2.07000000	         -0.00000000	         -0.00000000	          0.00000000	          0.00000000	          0.00000000	         -0.00000000	         -0.71761504	         -3.00194454	         -0.17331680	         -0.02264679	          0.00000000	         -0.00244534	          0.00000000	         -0.00000000	          0.00000000	          0.00000000	          0.13138648	          0.00000000	
          2.07100000	         -0.00000000	         -0.00000000	          0.00000000	          0.00000000	          0.00000000	         -0.00000000	         -0.67924331	         -2.84227871	         -0.16584337	         -0.02247692	          0.00000000	         -0.00243331	          0.00000000	         -0.00000000	          0.00000000	          0.00000000	          0.12367727	          0.00000000	
